<?xml version="1.0" encoding="UTF-8"?>
<svg version="1.1" xmlns="http://www.w3.org/2000/svg" width="225" height="225">
<path d="M0 0 C2.1400446 1.40669598 4.21698028 2.85235248 6.2578125 4.3984375 C8.51040135 3.28551949 10.73914532 2.14209817 12.95703125 0.9609375 C23.23571008 -4.41353509 32.65894568 -7.48527545 44.1953125 -4.4765625 C53.8698773 -1.22697708 58.88132246 3.38955821 63.84765625 12.30078125 C70.01858937 25.85632132 68.4551171 41.2085214 63.64453125 54.91796875 C62.2578125 58.3984375 62.2578125 58.3984375 61.32592773 60.18896484 C59.6725523 63.45106609 59.10497356 64.90532752 60.20703125 68.4609375 C60.78066406 69.4303125 61.35429687 70.3996875 61.9453125 71.3984375 C65.84895173 78.460077 68.64684922 85.2185546 67.2578125 93.3984375 C65.22549462 98.0541458 62.62567083 101.71486402 58.2578125 104.3984375 C51.07821807 105.79656905 44.60356453 103.67579297 38.2578125 100.3984375 C37.13801644 99.62903714 36.03122901 98.83995784 34.9453125 98.0234375 C34.0584375 97.4871875 33.1715625 96.9509375 32.2578125 96.3984375 C29.84129867 97.15265288 29.84129867 97.15265288 27.2578125 98.3984375 C25.40674173 99.09423006 23.55248855 99.78160885 21.6953125 100.4609375 C20.76589844 100.80253906 19.83648437 101.14414063 18.87890625 101.49609375 C9.50199275 104.72421151 0.49079757 103.90495369 -8.7421875 100.3984375 C-10.79253213 99.24709013 -12.83414949 98.08007634 -14.8671875 96.8984375 C-18.93213274 94.65179596 -18.93213274 94.65179596 -23.359375 95.0546875 C-25.65836298 96.35116597 -27.65800688 97.78487831 -29.7421875 99.3984375 C-34.22235708 102.08473636 -38.64610638 102.07571246 -43.7421875 101.3984375 C-47.39189271 99.26944279 -49.16890334 97.26324424 -50.7421875 93.3984375 C-51.6886916 85.99149264 -50.62615957 79.79312472 -47.71484375 72.96875 C-46.05795569 68.59030684 -45.26771573 65.71821394 -46.88671875 61.21484375 C-47.43714844 60.14105469 -47.98757812 59.06726563 -48.5546875 57.9609375 C-54.93554542 44.93335259 -57.40564928 29.49421182 -52.7421875 15.3984375 C-49.54977281 7.41004498 -44.46335333 0.480893 -36.7421875 -3.6015625 C-24.39155246 -7.8116717 -11.25689499 -6.57453981 0 0 Z M-37.7421875 5.3984375 C-36.44006261 8.18483203 -34.99804121 10.50767554 -33.0625 12.89453125 C-32.54558594 13.53583984 -32.02867188 14.17714844 -31.49609375 14.83789062 C-30.95855469 15.49724609 -30.42101562 16.15660156 -29.8671875 16.8359375 C-29.33738281 17.49142578 -28.80757812 18.14691406 -28.26171875 18.82226562 C-27.22988292 20.09861838 -26.19515037 21.37263599 -25.15722656 22.64404297 C-23.90449499 24.19720534 -22.69128594 25.78206395 -21.484375 27.37109375 C-20.62199219 28.37462891 -20.62199219 28.37462891 -19.7421875 29.3984375 C-19.0821875 29.3984375 -18.4221875 29.3984375 -17.7421875 29.3984375 C-17.7421875 28.7384375 -17.7421875 28.0784375 -17.7421875 27.3984375 C-17.0821875 27.3984375 -16.4221875 27.3984375 -15.7421875 27.3984375 C-15.7421875 26.7384375 -15.7421875 26.0784375 -15.7421875 25.3984375 C-15.0821875 25.3984375 -14.4221875 25.3984375 -13.7421875 25.3984375 C-12.07552083 24.06510417 -12.07552083 24.06510417 -10.7421875 22.3984375 C-10.7421875 21.7384375 -10.7421875 21.0784375 -10.7421875 20.3984375 C-10.2059375 20.1921875 -9.6696875 19.9859375 -9.1171875 19.7734375 C-5.7404221 17.81846806 -3.43743911 15.21620055 -0.7421875 12.3984375 C-1.78664305 9.40779148 -2.66794153 8.44512827 -5.39453125 6.73046875 C-17.05418439 1.33735927 -26.0095832 -0.46786465 -37.7421875 5.3984375 Z M12.2578125 9.3984375 C13.71526674 12.76179344 15.56899104 14.94377755 18.171875 17.5078125 C19.31269531 18.63896484 19.31269531 18.63896484 20.4765625 19.79296875 C21.270625 20.57027344 22.0646875 21.34757812 22.8828125 22.1484375 C23.68460938 22.94121094 24.48640625 23.73398438 25.3125 24.55078125 C27.28984096 26.50458243 29.27170159 28.45355853 31.2578125 30.3984375 C35.18137699 29.09058267 36.64790725 26.6037288 39.0078125 23.3984375 C39.89560289 22.21727467 40.78362515 21.0362861 41.671875 19.85546875 C42.32591309 18.97882568 42.32591309 18.97882568 42.99316406 18.08447266 C44.76028934 15.72853305 46.56940675 13.4063567 48.3828125 11.0859375 C48.94226563 10.36792969 49.50171875 9.64992188 50.078125 8.91015625 C50.46742188 8.41128906 50.85671875 7.91242188 51.2578125 7.3984375 C44.92753255 1.97248326 39.98499818 0.8956236 31.7578125 1.0078125 C24.50305801 1.81749492 17.93063915 4.84682835 12.2578125 9.3984375 Z M-41.7421875 9.3984375 C-47.69526846 17.03059257 -49.15334932 23.24061085 -49.1796875 32.8359375 C-49.18355469 33.80354004 -49.18742187 34.77114258 -49.19140625 35.76806641 C-49.05400693 44.40561736 -47.18862531 51.49624794 -43.7421875 59.3984375 C-42.4221875 59.3984375 -41.1021875 59.3984375 -39.7421875 59.3984375 C-38.10233571 57.26753952 -36.77320793 55.2679809 -35.4296875 52.9609375 C-34.6454334 51.67363856 -33.85765196 50.38848211 -33.06640625 49.10546875 C-32.48318604 48.15728271 -32.48318604 48.15728271 -31.88818359 47.18994141 C-29.83169557 43.97509072 -27.45742655 41.02924115 -25.0546875 38.0703125 C-23.67048669 36.42215227 -23.67048669 36.42215227 -22.7421875 34.3984375 C-23.10981201 33.88982178 -23.47743652 33.38120605 -23.85620117 32.85717773 C-25.54756222 30.51690802 -27.23862663 28.17642412 -28.9296875 25.8359375 C-29.50783203 25.03607422 -30.08597656 24.23621094 -30.68164062 23.41210938 C-31.25205078 22.62255859 -31.82246094 21.83300781 -32.41015625 21.01953125 C-32.9726709 20.24206543 -33.53518555 19.46459961 -34.11474609 18.66357422 C-35.16808996 17.19748895 -36.21326787 15.72548736 -37.24853516 14.24658203 C-38.39102587 12.61486355 -39.56329759 11.00405539 -40.7421875 9.3984375 C-41.0721875 9.3984375 -41.4021875 9.3984375 -41.7421875 9.3984375 Z M53.2578125 10.3984375 C51.828039 11.89465275 51.828039 11.89465275 50.39453125 13.87109375 C49.83701172 14.60650391 49.27949219 15.34191406 48.70507812 16.09960938 C48.12435547 16.87884766 47.54363281 17.65808594 46.9453125 18.4609375 C46.37619141 19.21310547 45.80707031 19.96527344 45.22070312 20.74023438 C41.82595101 25.24188614 38.5151767 29.79657025 35.2578125 34.3984375 C38.13490784 38.32638681 41.02460245 42.19216109 44.2578125 45.8359375 C47.67729897 49.74392204 50.46464083 54.03039244 53.2578125 58.3984375 C56.78226558 56.63621096 57.33723405 52.74514667 58.55834961 49.17138672 C60.34170231 43.30296742 60.77582147 37.63715564 60.8203125 31.5234375 C60.83465332 30.65686523 60.84899414 29.79029297 60.86376953 28.89746094 C60.76654202 22.61968437 59.17084185 17.9259536 56.2578125 12.3984375 C55.9278125 11.7384375 55.5978125 11.0784375 55.2578125 10.3984375 C54.5978125 10.3984375 53.9378125 10.3984375 53.2578125 10.3984375 Z M4.2578125 16.3984375 C3.71511719 16.88054687 3.17242187 17.36265625 2.61328125 17.859375 C1.89785156 18.49101563 1.18242188 19.12265625 0.4453125 19.7734375 C-0.26238281 20.39992188 -0.97007813 21.02640625 -1.69921875 21.671875 C-3.7421875 23.3984375 -3.7421875 23.3984375 -6.7421875 25.3984375 C-6.7421875 26.0584375 -6.7421875 26.7184375 -6.7421875 27.3984375 C-7.4021875 27.3984375 -8.0621875 27.3984375 -8.7421875 27.3984375 C-8.7421875 28.0584375 -8.7421875 28.7184375 -8.7421875 29.3984375 C-9.3815625 29.6665625 -10.0209375 29.9346875 -10.6796875 30.2109375 C-13.07350436 31.28511502 -13.07350436 31.28511502 -13.7421875 34.3984375 C-14.4021875 34.7284375 -15.0621875 35.0584375 -15.7421875 35.3984375 C-15.26910156 35.92050781 -14.79601562 36.44257812 -14.30859375 36.98046875 C-1.56334619 51.16669946 -1.56334619 51.16669946 3.2578125 58.3984375 C3.9178125 58.3984375 4.5778125 58.3984375 5.2578125 58.3984375 C5.5878125 59.3884375 5.9178125 60.3784375 6.2578125 61.3984375 C9.88200141 57.82029092 13.38260241 54.15560192 16.8203125 50.3984375 C17.28888672 49.89054687 17.75746094 49.38265625 18.24023438 48.859375 C21.04412088 45.80058972 23.70339849 42.66808743 26.2578125 39.3984375 C24.96783095 36.55648884 23.62143663 34.52031807 21.39453125 32.33984375 C20.83701172 31.78876953 20.27949219 31.23769531 19.70507812 30.66992188 C19.12435547 30.10595703 18.54363281 29.54199219 17.9453125 28.9609375 C17.37619141 28.40083984 16.80707031 27.84074219 16.22070312 27.26367188 C15.099363 26.16035558 13.97555431 25.05954177 12.84912109 23.96142578 C11.37019313 22.5088181 9.91639081 21.03075021 8.46484375 19.55078125 C6.45055914 17.36801799 6.45055914 17.36801799 4.2578125 16.3984375 Z M-19.7421875 39.3984375 C-22.11944679 42.44919494 -24.28048099 45.66388474 -26.4921875 48.8359375 C-27.11351562 49.71443359 -27.73484375 50.59292969 -28.375 51.49804688 C-32.19610782 56.95965141 -35.64282341 62.49647613 -38.7421875 68.3984375 C-31.79814464 78.52584653 -31.79814464 78.52584653 -22.7421875 86.3984375 C-13.62301462 85.46669592 -4.73470207 73.65728605 1.2578125 67.3984375 C-0.2746806 63.92425158 -2.34758465 61.34272479 -4.8046875 58.4609375 C-8.8180192 53.6475413 -12.42883014 48.67202953 -15.91040039 43.46313477 C-16.83226736 42.09312935 -17.78421693 40.74344529 -18.7421875 39.3984375 C-19.0721875 39.3984375 -19.4021875 39.3984375 -19.7421875 39.3984375 Z M28.2578125 42.3984375 C26.29799962 44.65251658 24.45380486 46.9116936 22.6328125 49.2734375 C22.1171875 49.92441406 21.6015625 50.57539062 21.0703125 51.24609375 C18.23316347 54.46350424 18.23316347 54.46350424 17.2578125 58.3984375 C16.5978125 58.3984375 15.9378125 58.3984375 15.2578125 58.3984375 C13.90069084 59.95699731 13.90069084 59.95699731 12.6328125 61.8984375 C12.18679687 62.548125 11.74078125 63.1978125 11.28125 63.8671875 C10.94351563 64.3725 10.60578125 64.8778125 10.2578125 65.3984375 C17.23255629 72.58889501 24.23004795 79.35985355 32.2578125 85.3984375 C35.75112859 83.89789945 38.07160024 81.88335073 40.7578125 79.2109375 C41.510625 78.47488281 42.2634375 77.73882812 43.0390625 76.98046875 C45.6413916 73.95205407 47.37033994 70.91171029 49.2578125 67.3984375 C40.70459157 54.1015323 40.70459157 54.1015323 30.2578125 42.3984375 C29.5978125 42.3984375 28.9378125 42.3984375 28.2578125 42.3984375 Z M4.2578125 70.3984375 C2.52088092 72.15365698 2.52088092 72.15365698 0.7578125 74.3359375 C-2.53977058 78.29722904 -2.53977058 78.29722904 -4.7421875 79.3984375 C-4.7421875 80.0584375 -4.7421875 80.7184375 -4.7421875 81.3984375 C-5.4021875 81.3984375 -6.0621875 81.3984375 -6.7421875 81.3984375 C-6.7421875 82.0584375 -6.7421875 82.7184375 -6.7421875 83.3984375 C-7.2990625 83.6459375 -7.8559375 83.8934375 -8.4296875 84.1484375 C-11.16629663 85.62768568 -13.41869619 87.33311189 -15.7421875 89.3984375 C-15.7421875 90.0584375 -15.7421875 90.7184375 -15.7421875 91.3984375 C-13.68168895 92.21599988 -11.61869897 93.02728484 -9.5546875 93.8359375 C-8.40613281 94.28839844 -7.25757813 94.74085938 -6.07421875 95.20703125 C4.26380958 98.90351266 12.13055524 97.14825978 22.2578125 93.3984375 C23.2478125 92.7384375 24.2378125 92.0784375 25.2578125 91.3984375 C23.7266262 87.59209869 21.40597967 85.54458967 18.3203125 82.8984375 C15.79999659 80.73074311 13.54780241 78.78955552 11.56640625 76.1171875 C11.13457031 75.55 10.70273438 74.9828125 10.2578125 74.3984375 C9.5978125 74.3984375 8.9378125 74.3984375 8.2578125 74.3984375 C8.2578125 73.7384375 8.2578125 73.0784375 8.2578125 72.3984375 C7.5978125 72.3984375 6.9378125 72.3984375 6.2578125 72.3984375 C6.2578125 71.7384375 6.2578125 71.0784375 6.2578125 70.3984375 C5.5978125 70.3984375 4.9378125 70.3984375 4.2578125 70.3984375 Z M-40.7421875 72.3984375 C-43.83733725 78.89272492 -46.15753936 85.13041441 -44.7421875 92.3984375 C-43.30521687 94.65286043 -43.30521687 94.65286043 -41.7421875 96.3984375 C-36.20321904 95.9368568 -31.34570851 94.65458651 -26.7421875 91.3984375 C-26.4121875 90.4084375 -26.0821875 89.4184375 -25.7421875 88.3984375 C-26.4021875 88.3984375 -27.0621875 88.3984375 -27.7421875 88.3984375 C-27.7421875 87.7384375 -27.7421875 87.0784375 -27.7421875 86.3984375 C-28.4021875 86.3984375 -29.0621875 86.3984375 -29.7421875 86.3984375 C-29.7421875 85.7384375 -29.7421875 85.0784375 -29.7421875 84.3984375 C-30.4021875 84.3984375 -31.0621875 84.3984375 -31.7421875 84.3984375 C-32.00902344 83.82609375 -32.27585937 83.25375 -32.55078125 82.6640625 C-33.79115557 80.30531789 -35.20164414 78.2753255 -36.8046875 76.1484375 C-37.33191406 75.44203125 -37.85914063 74.735625 -38.40234375 74.0078125 C-38.84449219 73.47671875 -39.28664063 72.945625 -39.7421875 72.3984375 C-40.0721875 72.3984375 -40.4021875 72.3984375 -40.7421875 72.3984375 Z M52.2578125 74.3984375 C50.97604658 75.91379628 49.73301701 77.46199265 48.5078125 79.0234375 C45.47581686 82.86251112 42.40873882 86.6567125 39.2578125 90.3984375 C41.16662684 91.43387924 43.08520454 92.45133835 45.0078125 93.4609375 C46.07515625 94.02941406 47.1425 94.59789062 48.2421875 95.18359375 C51.07116583 96.5861479 51.07116583 96.5861479 53.53515625 96.20703125 C56.42617041 94.85002461 57.09130306 93.34540871 58.2578125 90.3984375 C58.5656946 84.07501278 56.68545937 79.59519243 53.2578125 74.3984375 C52.9278125 74.3984375 52.5978125 74.3984375 52.2578125 74.3984375 Z " fill="#E2E2E2" transform="translate(105.7421875,62.6015625)"/>
<path d="M0 0 C0.66 0.33 1.32 0.66 2 1 C1.67 1.5775 1.34 2.155 1 2.75 C-0.27075898 5.19883862 -0.27075898 5.19883862 0 9 C0.55945313 9.05027344 1.11890625 9.10054687 1.6953125 9.15234375 C5.03899225 10.38213783 6.73330689 12.84631663 8.875 15.5625 C9.53145508 16.37134644 9.53145508 16.37134644 10.20117188 17.1965332 C13.19348314 20.90653508 16.07842849 24.69151442 18.84375 28.57421875 C19.96109034 30.15263438 19.96109034 30.15263438 22 31 C22 30.34 22 29.68 22 29 C22.66 29 23.32 29 24 29 C24 28.34 24 27.68 24 27 C24.66 27 25.32 27 26 27 C26.495 25.515 26.495 25.515 27 24 C27.66 24 28.32 24 29 24 C29 23.34 29 22.68 29 22 C30.64453125 20.37890625 30.64453125 20.37890625 32.8125 18.5625 C35.31102718 16.45536324 37.7242056 14.34758602 40 12 C39.56852759 14.50254 39.35368939 15.70072437 37.375 17.375 C36.92125 17.91125 36.4675 18.4475 36 19 C36.23283149 22.14921909 36.23283149 22.14921909 37 25 C35.02 25.99 35.02 25.99 33 27 C33 27.66 33 28.32 33 29 C32.34 29 31.68 29 31 29 C31 29.66 31 30.32 31 31 C29.33333333 32.66666667 27.66666667 34.33333333 26 36 C26 39.61559453 29.38265223 42.1344166 31.6875 44.75 C33.79322331 47.16531325 35.89693257 49.58237406 38 52 C38.49838379 52.56783203 38.99676758 53.13566406 39.51025391 53.72070312 C43 57.77299383 43 57.77299383 43 60 C43.66 60 44.32 60 45 60 C45.66 60.66 46.32 61.32 47 62 C47.37809814 61.56131592 47.75619629 61.12263184 48.14575195 60.6706543 C49.86679001 58.67522109 51.58962528 56.68134757 53.3125 54.6875 C53.90740234 53.99720703 54.50230469 53.30691406 55.11523438 52.59570312 C55.69208984 51.92861328 56.26894531 51.26152344 56.86328125 50.57421875 C57.65665894 49.65515747 57.65665894 49.65515747 58.46606445 48.7175293 C59.92494918 47.08403351 61.43536257 45.53182721 63 44 C63.66 44.66 64.32 45.32 65 46 C64.71319334 50.16219427 63.12392467 52.60140005 60.5625 55.8125 C59.94503906 56.60269531 59.32757813 57.39289063 58.69140625 58.20703125 C58.13324219 58.79871094 57.57507813 59.39039063 57 60 C56.34 60 55.68 60 55 60 C54.34 61.32 53.68 62.64 53 64 C52.67 63.01 52.34 62.02 52 61 C51.21625 61.825 50.4325 62.65 49.625 63.5 C47 66 47 66 45 66 C45.33 67.98 45.66 69.96 46 72 C45.34 72 44.68 72 44 72 C43.773125 72.556875 43.54625 73.11375 43.3125 73.6875 C41.62449964 76.66159588 39.53323483 78.72008865 37 81 C36.34 81 35.68 81 35 81 C35 81.66 35 82.32 35 83 C34.34 83 33.68 83 33 83 C33 83.66 33 84.32 33 85 C31.28515625 86.4375 31.28515625 86.4375 29.0625 88 C26.01367363 90.04816804 26.01367363 90.04816804 24 93 C26.31 93.66 28.62 94.32 31 95 C30.01 95.495 30.01 95.495 29 96 C29 96.66 29 97.32 29 98 C27.375 98.6875 27.375 98.6875 25 99 C24.113125 98.4225 23.22625 97.845 22.3125 97.25 C19.17878524 95.65223095 19.17878524 95.65223095 16.75390625 96.83984375 C14.4430188 98.14896718 12.22726544 99.55430225 10 101 C5.48077173 103.65044203 1.12502606 103.68112178 -4 103 C-7.64970521 100.87100529 -9.42671584 98.86480674 -11 95 C-11.9465041 87.59305514 -10.88397207 81.39468722 -7.97265625 74.5703125 C-6.31576819 70.19186934 -5.52552823 67.31977644 -7.14453125 62.81640625 C-7.69496094 61.74261719 -8.24539062 60.66882813 -8.8125 59.5625 C-15.19335792 46.53491509 -17.66346178 31.09577432 -13 17 C-10.23368266 10.07783265 -6.29371255 4.19580837 0 0 Z M-2 11 C-7.95308096 18.63215507 -9.41116182 24.84217335 -9.4375 34.4375 C-9.44136719 35.40510254 -9.44523437 36.37270508 -9.44921875 37.36962891 C-9.31181943 46.00717986 -7.44643781 53.09781044 -4 61 C-2.68 61 -1.36 61 0 61 C1.63985179 58.86910202 2.96897957 56.8695434 4.3125 54.5625 C5.0967541 53.27520106 5.88453554 51.99004461 6.67578125 50.70703125 C7.25900146 49.75884521 7.25900146 49.75884521 7.85400391 48.79150391 C9.91049193 45.57665322 12.28476095 42.63080365 14.6875 39.671875 C16.07170081 38.02371477 16.07170081 38.02371477 17 36 C16.63237549 35.49138428 16.26475098 34.98276855 15.88598633 34.45874023 C14.19462528 32.11847052 12.50356087 29.77798662 10.8125 27.4375 C10.23435547 26.63763672 9.65621094 25.83777344 9.06054688 25.01367188 C8.49013672 24.22412109 7.91972656 23.43457031 7.33203125 22.62109375 C6.7695166 21.84362793 6.20700195 21.06616211 5.62744141 20.26513672 C4.57409754 18.79905145 3.52891963 17.32704986 2.49365234 15.84814453 C1.35116163 14.21642605 0.17888991 12.60561789 -1 11 C-1.33 11 -1.66 11 -2 11 Z M20 41 C17.62274071 44.05075744 15.46170651 47.26544724 13.25 50.4375 C12.62867188 51.31599609 12.00734375 52.19449219 11.3671875 53.09960938 C7.54607968 58.56121391 4.09936409 64.09803863 1 70 C7.94404286 80.12740903 7.94404286 80.12740903 17 88 C26.11917288 87.06825842 35.00748543 75.25884855 41 69 C39.4675069 65.52581408 37.39460285 62.94428729 34.9375 60.0625 C30.9241683 55.2491038 27.31335736 50.27359203 23.83178711 45.06469727 C22.90992014 43.69469185 21.95797057 42.34500779 21 41 C20.67 41 20.34 41 20 41 Z M-1 74 C-4.09514975 80.49428742 -6.41535186 86.73197691 -5 94 C-3.56302937 96.25442293 -3.56302937 96.25442293 -2 98 C3.53896846 97.5384193 8.39647899 96.25614901 13 93 C13.33 92.01 13.66 91.02 14 90 C13.34 90 12.68 90 12 90 C12 89.34 12 88.68 12 88 C11.34 88 10.68 88 10 88 C10 87.34 10 86.68 10 86 C9.34 86 8.68 86 8 86 C7.73316406 85.42765625 7.46632813 84.8553125 7.19140625 84.265625 C5.95103193 81.90688039 4.54054336 79.876888 2.9375 77.75 C2.41027344 77.04359375 1.88304687 76.3371875 1.33984375 75.609375 C0.89769531 75.07828125 0.45554687 74.5471875 0 74 C-0.33 74 -0.66 74 -1 74 Z " fill="#D8D8D8" transform="translate(66,61)"/>
<path d="M0 0 C6.94966801 6.58931486 10.97393284 16.11857005 11.4453125 25.6015625 C11.47446491 27.27583851 11.48693446 28.95047216 11.484375 30.625 C11.48630859 31.93645996 11.48630859 31.93645996 11.48828125 33.27441406 C11.36736513 40.74648083 9.94980853 47.05108226 7.109375 54 C4.139375 53.505 4.139375 53.505 1.109375 53 C1.99330119 45.42348979 1.99330119 45.42348979 2.61425781 43.15795898 C3.54487785 39.10186898 3.37867256 34.95705455 3.421875 30.8125 C3.45087891 29.90435547 3.47988281 28.99621094 3.50976562 28.06054688 C3.56425349 22.20519672 2.66363425 18.00147065 -0.02661133 12.78393555 C-0.890625 11 -0.890625 11 -0.890625 9 C-6.06289115 13.6873662 -9.87987993 19.31728181 -13.890625 25 C-15.540625 24.67 -17.190625 24.34 -18.890625 24 C-15.45126277 17.27081302 -10.75765353 11.75099739 -5.890625 6 C-11.77535934 1.20503128 -16.9471218 0.50338758 -24.39453125 0.61328125 C-32.32717259 1.4907466 -38.86506692 4.89137467 -44.890625 10 C-45.4441014 7.92446352 -45.890625 6.15634036 -45.890625 4 C-46.550625 3.67 -47.210625 3.34 -47.890625 3 C-36.17599345 -10.30502854 -13.46223382 -9.54768356 0 0 Z " fill="#D9D9D9" transform="translate(161.890625,64)"/>
<path d="M0 0 C0.99 0.66 1.98 1.32 3 2 C2.45994624 6.16507217 1.16934899 8.54445439 -1.4375 11.8125 C-2.05496094 12.60269531 -2.67242187 13.39289063 -3.30859375 14.20703125 C-4.14583984 15.09455078 -4.14583984 15.09455078 -5 16 C-5.66 16 -6.32 16 -7 16 C-7.66 17.32 -8.32 18.64 -9 20 C-9.33 19.01 -9.66 18.02 -10 17 C-11.98 18.32 -13.96 19.64 -16 21 C-14.70324932 18.1958531 -13.28546588 15.97199514 -11.25 13.65234375 C-10.46109375 12.74452148 -10.46109375 12.74452148 -9.65625 11.81835938 C-8.83640625 10.88733398 -8.83640625 10.88733398 -8 9.9375 C-6.91519268 8.69790296 -5.83180417 7.45706251 -4.75 6.21484375 C-4.27046875 5.66948975 -3.7909375 5.12413574 -3.296875 4.56225586 C-1.80388257 2.81919476 -1.80388257 2.81919476 0 0 Z " fill="#CDCDCD" transform="translate(128,105)"/>
<path d="M0 0 C1.32 0.33 2.64 0.66 4 1 C2.65070536 4.83663072 0.92248975 7.65172569 -1.625 10.8125 C-2.25664062 11.60269531 -2.88828125 12.39289063 -3.5390625 13.20703125 C-4.02117187 13.79871094 -4.50328125 14.39039062 -5 15 C-6.65 14.67 -8.3 14.34 -10 14 C-7.20307439 8.72887096 -4.01764453 4.40601683 0 0 Z " fill="#CACACA" transform="translate(153,74)"/>
<path d="M0 0 C2.90802461 2.21928194 4.95312762 3.92969143 7 7 C7.125 9.6875 7.125 9.6875 7 12 C6.01 12.33 5.02 12.66 4 13 C1.76810274 10.45916781 -0.32355244 7.94466926 -2 5 C-1.375 2 -1.375 2 0 0 Z " fill="#CBCBCB" transform="translate(68,70)"/>
<path d="M0 0 C4.21878192 -0.19622241 7.17010894 0.19769832 11 2 C10.01 2.495 10.01 2.495 9 3 C9 3.66 9 4.32 9 5 C7.3125 5.8125 7.3125 5.8125 5 6 C2.25 3.625 2.25 3.625 0 1 C0 0.67 0 0.34 0 0 Z " fill="#D3D3D3" transform="translate(86,154)"/>
<path d="M0 0 C0 0.99 0 1.98 0 3 C-0.66 3 -1.32 3 -2 3 C-2.66 4.32 -3.32 5.64 -4 7 C-4.33 6.01 -4.66 5.02 -5 4 C-6.98 5.32 -8.96 6.64 -11 8 C-9.70989008 5.12206249 -8.42638194 3.03816083 -6 1 C-3 0 -3 0 0 0 Z " fill="#CCCCCC" transform="translate(123,118)"/>
<path d="M0 0 C0.33 0.99 0.66 1.98 1 3 C0.01439389 4.34400833 -0.98758315 5.67607028 -2 7 C-2.71433121 9.64934822 -2.71433121 9.64934822 -3 12 C-3.33 10.68 -3.66 9.36 -4 8 C-5.65 8.66 -7.3 9.32 -9 10 C-8.06409496 8.8944811 -7.12620142 7.79064547 -6.1875 6.6875 C-5.66542969 6.07261719 -5.14335938 5.45773438 -4.60546875 4.82421875 C-3.12827531 3.14575321 -1.59960869 1.56117966 0 0 Z " fill="#B7B7B7" transform="translate(106,130)"/>
<path d="M0 0 C0.33 0.99 0.66 1.98 1 3 C1.66 3 2.32 3 3 3 C2.34 4.65 1.68 6.3 1 8 C-0.65 7.67 -2.3 7.34 -4 7 C-2.68 4.69 -1.36 2.38 0 0 Z " fill="#C3C3C3" transform="translate(147,81)"/>
<path d="M0 0 C0.66 0 1.32 0 2 0 C1.64950425 3.24208567 1.43778819 4.61527704 -1.0625 6.8125 C-1.701875 7.204375 -2.34125 7.59625 -3 8 C-3.33 7.01 -3.66 6.02 -4 5 C-2.1875 2.3125 -2.1875 2.3125 0 0 Z " fill="#D1D1D1" transform="translate(107,132)"/>
<path d="M0 0 C1.65 0 3.3 0 5 0 C3.25 4.875 3.25 4.875 1 6 C0.34 5.67 -0.32 5.34 -1 5 C-0.67 3.35 -0.34 1.7 0 0 Z " fill="#D4D4D4" transform="translate(142,88)"/>
<path d="M0 0 C0.66 0.33 1.32 0.66 2 1 C-0.31 3.64 -2.62 6.28 -5 9 C-5.66 8.67 -6.32 8.34 -7 8 C-5.50902342 4.2047869 -3.24299151 2.38957269 0 0 Z " fill="#C4C4C4" transform="translate(66,61)"/>
<path d="M0 0 C-0.33 1.65 -0.66 3.3 -1 5 C-2.32 4.34 -3.64 3.68 -5 3 C-2.25 0 -2.25 0 0 0 Z M-8 5 C-6 6 -6 6 -6 6 Z " fill="#E6E6E6" transform="translate(125,114)"/>
</svg>
