<?xml version="1.0" standalone="no"?>
<!DOCTYPE svg PUBLIC "-//W3C//DTD SVG 20010904//EN"
 "http://www.w3.org/TR/2001/REC-SVG-20010904/DTD/svg10.dtd">
<svg version="1.0" xmlns="http://www.w3.org/2000/svg"
 width="225.000000pt" height="225.000000pt" viewBox="0 0 225.000000 225.000000"
 preserveAspectRatio="xMidYMid meet">

<g transform="translate(0.000000,225.000000) scale(0.100000,-0.100000)"
fill="#000000" stroke="none">
<path d="M757 1670 c-90 -23 -170 -90 -208 -174 -56 -127 -40 -315 40 -480 29
-60 29 -60 11 -95 -25 -50 -50 -138 -50 -178 0 -69 53 -133 110 -133 30 0 110
30 153 57 l39 25 57 -30 c147 -78 294 -81 424 -9 l39 22 36 -23 c67 -41 126
-65 173 -70 40 -4 50 0 81 27 20 17 41 44 48 61 21 51 8 136 -34 226 l-38 81
20 39 c69 135 88 332 43 447 -49 126 -138 196 -261 205 -102 7 -217 -27 -289
-86 l-25 -19 -47 34 c-87 62 -232 95 -322 73z m750 -76 c76 -27 76 -31 -32
-165 l-96 -120 -105 108 c-118 121 -117 113 -17 160 91 42 163 47 250 17z
m-545 -22 c116 -56 115 -49 7 -150 -52 -49 -98 -90 -102 -91 -9 -2 -187 217
-187 230 0 9 32 28 69 40 50 16 146 3 213 -29z m-218 -169 l88 -123 -50 -67
c-27 -38 -71 -101 -97 -142 l-47 -73 -20 43 c-56 125 -72 273 -39 377 20 65
59 129 71 115 4 -4 46 -63 94 -130z m896 55 c30 -70 36 -175 16 -263 -19 -81
-46 -155 -56 -155 -3 0 -22 21 -40 48 -19 26 -61 80 -93 119 l-59 73 93 124
c65 85 98 121 105 115 7 -6 22 -33 34 -61z m-320 -219 c0 -3 -44 -57 -97 -120
l-97 -113 -49 55 c-27 30 -78 90 -114 134 l-64 80 103 99 103 98 108 -113 c59
-62 107 -116 107 -120z m-395 -89 c27 -36 73 -93 103 -128 l55 -63 -29 -31
c-16 -17 -69 -64 -117 -104 -70 -59 -92 -72 -105 -65 -21 11 -95 90 -135 143
-28 36 -28 37 -11 70 41 79 174 262 184 251 4 -4 29 -37 55 -73z m491 -15 c61
-73 134 -177 134 -191 0 -16 -104 -138 -134 -158 -24 -15 -30 -16 -49 -3 -46
30 -207 179 -207 191 0 7 10 21 21 32 12 10 55 61 96 112 42 52 79 90 82 85 4
-4 30 -35 57 -68z m-196 -319 c55 -54 99 -100 98 -101 -2 0 -15 -8 -29 -17
-39 -24 -127 -48 -178 -48 -52 0 -105 13 -174 42 l-48 21 108 103 c59 57 111
102 115 101 4 -1 52 -47 108 -101z m-546 59 c9 -13 43 -53 77 -89 l60 -65 -60
-31 c-60 -30 -95 -37 -118 -22 -20 13 -35 65 -28 102 8 47 37 130 46 130 4 0
14 -11 23 -25z m942 -40 c28 -64 31 -121 8 -153 -21 -30 -55 -28 -125 9 l-59
32 70 74 c39 41 70 79 70 84 0 22 13 5 36 -46z"/>
</g>
</svg>
